<?xml version="1.0" standalone="no"?>
<!DOCTYPE svg PUBLIC "-//W3C//DTD SVG 20010904//EN"
 "http://www.w3.org/TR/2001/REC-SVG-20010904/DTD/svg10.dtd">
<svg version="1.0" xmlns="http://www.w3.org/2000/svg"
 width="1024.000000pt" height="1024.000000pt" viewBox="0 0 1024.000000 1024.000000"
 preserveAspectRatio="xMidYMid meet">
<metadata>
Created by potrace 1.14, written by Peter Selinger 2001-2017
</metadata>
<g transform="translate(0.000000,1024.000000) scale(0.100000,-0.100000)"
fill="#000000" stroke="none">
<path d="M4933 9216 c-104 -51 -243 -119 -309 -151 -65 -32 -252 -123 -414
-203 -294 -144 -535 -262 -830 -405 -85 -41 -276 -134 -425 -207 -148 -73
-362 -177 -475 -232 -113 -55 -317 -156 -455 -223 -137 -68 -357 -175 -487
-239 l-238 -116 0 -572 1 -573 927 -464 c510 -255 1369 -685 1908 -956 l982
-492 1908 958 1909 957 2 574 3 573 -53 24 c-28 14 -182 89 -342 167 -159 78
-411 201 -560 274 -148 73 -358 175 -465 227 -107 53 -301 147 -430 210 -129
64 -302 148 -385 188 -82 40 -296 144 -475 232 -484 238 -524 258 -532 256 -3
-1 -12 4 -18 12 -7 8 -16 15 -21 15 -6 0 -505 240 -530 256 -4 2 -92 -39 -196
-90z"/>
<path d="M5616 4265 c-269 -135 -493 -245 -498 -245 -5 0 -225 108 -490 240
-264 132 -485 240 -490 240 -8 0 -2 -2996 7 -3010 2 -3 210 -109 462 -235 252
-125 470 -234 485 -241 25 -13 49 -2 517 231 l491 245 1 392 c0 216 2 896 5
1511 2 614 3 1117 2 1117 -2 -1 -223 -111 -492 -245z"/>
</g>
</svg>
