<?xml version="1.0" standalone="no"?>
<!DOCTYPE svg PUBLIC "-//W3C//DTD SVG 20010904//EN"
 "http://www.w3.org/TR/2001/REC-SVG-20010904/DTD/svg10.dtd">
<svg version="1.0" xmlns="http://www.w3.org/2000/svg"
 width="530.000000pt" height="530.000000pt" viewBox="0 0 530.000000 530.000000"
 preserveAspectRatio="xMidYMid meet">
<metadata>
Created by potrace 1.14, written by Peter Selinger 2001-2017
</metadata>
<g transform="translate(0.000000,530.000000) scale(0.100000,-0.100000)"
fill="#000000" stroke="none">
<path d="M2499 4906 c-2 -2 -32 -7 -67 -10 -254 -27 -528 -127 -767 -281 -49
-31 -92 -60 -95 -64 -3 -3 -23 -19 -45 -35 -64 -48 -246 -235 -306 -316 -199
-267 -312 -543 -356 -865 -10 -77 -10 -332 0 -414 45 -363 228 -782 536 -1226
30 -44 58 -82 61 -85 3 -3 32 -41 64 -85 51 -68 170 -219 186 -235 3 -3 30
-34 60 -70 30 -35 62 -72 70 -81 185 -200 238 -255 310 -328 145 -144 299
-289 432 -404 l66 -58 69 57 c228 193 596 561 808 808 28 32 55 63 60 69 118
133 328 422 456 627 186 297 339 659 375 885 3 22 8 43 9 46 18 29 26 369 12
487 -31 261 -128 527 -275 757 -143 224 -367 439 -596 574 -289 169 -576 247
-917 249 -81 1 -148 0 -150 -2z m346 -611 c17 -3 50 -11 75 -16 336 -74 645
-318 805 -638 41 -81 91 -227 100 -291 4 -25 10 -63 15 -85 14 -59 5 -309 -14
-393 -35 -159 -95 -301 -185 -437 -59 -91 -227 -258 -316 -317 -131 -85 -287
-153 -405 -177 -30 -6 -68 -13 -85 -17 -64 -13 -291 -12 -370 1 -259 45 -476
155 -656 334 -172 172 -275 356 -330 591 -34 144 -33 398 2 535 58 229 159
407 324 570 185 185 394 294 650 339 80 14 327 15 390 1z"/>
<path d="M2459 4005 c0 -6 0 -65 0 -131 l0 -122 -52 -33 c-29 -18 -64 -40 -79
-47 -16 -8 -29 -20 -29 -26 -1 -6 -3 -20 -4 -31 -1 -11 -3 -26 -3 -32 -1 -7
-15 -13 -31 -13 -17 0 -32 -4 -36 -9 -3 -6 -6 -245 -6 -533 l0 -523 -55 0 -54
-1 0 268 0 268 -22 1 c-13 1 -44 1 -70 1 -35 -1 -48 2 -48 12 0 20 -80 35
-132 25 -24 -4 -46 -8 -50 -9 -5 0 -8 -6 -8 -13 0 -10 -17 -13 -61 -12 -33 0
-65 -3 -71 -6 -7 -5 -11 -66 -10 -172 0 -164 0 -165 32 -228 82 -166 181 -289
308 -386 267 -201 613 -283 897 -211 22 6 48 12 57 13 42 9 208 81 276 122
173 102 281 211 381 386 39 68 91 183 91 202 0 3 -28 5 -63 5 l-62 0 0 253 0
252 -30 0 c-19 1 -31 6 -33 16 -3 15 -49 18 -71 4 -6 -3 -11 -3 -11 2 0 4 -25
8 -55 8 -30 0 -55 -2 -55 -5 0 -7 -54 -5 -66 2 -5 3 -18 2 -29 -3 -11 -4 -15
-9 -10 -10 6 -1 -8 -5 -30 -8 l-40 -6 0 -127 c0 -71 -2 -128 -5 -129 -3 0 -30
-2 -60 -3 -62 -3 -86 -11 -94 -32 -4 -10 -23 -14 -69 -14 l-64 0 -1 -266 c-1
-147 -4 -269 -7 -272 -11 -12 -27 17 -28 55 -2 35 -16 62 -59 113 -11 12 -15
45 -18 140 -1 39 -1 713 0 735 1 25 1 33 -2 65 -2 20 -10 26 -38 30 -33 5 -35
8 -35 40 -1 32 -6 39 -82 90 l-82 55 1 118 c1 77 -3 122 -11 130 -6 6 -11 7
-12 2z"/>
</g>
</svg>
